HIERARCHY
ROOT Hips
{
	OFFSET -3.958830 18.904000 13.208200
	CHANNELS 6 Xposition Yposition Zposition Zrotation Yrotation Xrotation 
	JOINT LHipJoint
	{
		OFFSET 0.000000 0.000000 0.000000
		CHANNELS 3 Zrotation Yrotation Xrotation
		JOINT LeftUpLeg
		{
			OFFSET 1.800000 -1.400000 0.085000
			CHANNELS 3 Zrotation Yrotation Xrotation
			JOINT LeftLeg
			{
				OFFSET 2.215000 -6.000000 0.000000
				CHANNELS 3 Zrotation Yrotation Xrotation
				JOINT LeftFoot
				{
					OFFSET 2.500000 -6.900000 0.000000
					CHANNELS 3 Zrotation Yrotation Xrotation
					JOINT LeftToeBase
					{
						OFFSET 0.200000 -0.500000 1.950000
						CHANNELS 3 Zrotation Yrotation Xrotation
						End Site
						{
							OFFSET 0.000000 0.000000 0.000000
						}
					}
				}
			}
		}
	}
	JOINT RHipJoint
	{
		OFFSET 0.000000 0.000000 0.000000
		CHANNELS 3 Zrotation Yrotation Xrotation
		JOINT RightUpLeg
		{
			OFFSET -1.800000 -1.400000 0.085000
			CHANNELS 3 Zrotation Yrotation Xrotation
			JOINT RightLeg
			{
				OFFSET -2.215000 -6.000000 0.000000
				CHANNELS 3 Zrotation Yrotation Xrotation
				JOINT RightFoot
				{
					OFFSET -2.500000 -6.900000 0.000000
					CHANNELS 3 Zrotation Yrotation Xrotation
					JOINT RightToeBase
					{
						OFFSET -0.200000 -0.500000 1.950000
						CHANNELS 3 Zrotation Yrotation Xrotation
						End Site
						{
							OFFSET 0.000000 0.000000 0.000000
						}
					}
				}
			}
		}
	}
	JOINT LowerBack
	{
		OFFSET 0.000000 0.000000 0.000000
		CHANNELS 3 Zrotation Yrotation Xrotation
		JOINT Spine
		{
			OFFSET -0.087000 1.940000 -0.288900
			CHANNELS 3 Zrotation Yrotation Xrotation
			JOINT Spine1
			{
				OFFSET 0.000000 1.950000 0.060000
				CHANNELS 3 Zrotation Yrotation Xrotation
				JOINT Neck
				{
					OFFSET 0.000000 0.000000 0.000000
					CHANNELS 3 Zrotation Yrotation Xrotation
					JOINT Neck1
					{
						OFFSET 0.000000 1.600000 0.340000
						CHANNELS 3 Zrotation Yrotation Xrotation
						JOINT Head
						{
							OFFSET 0.000000 1.667000 -0.240000
							CHANNELS 3 Zrotation Yrotation Xrotation
							End Site
							{
								OFFSET 0.000000 0.000000 0.000000
							}
						}
					}
				}
				JOINT LeftShoulder
				{
					OFFSET 0.000000 0.000000 0.000000
					CHANNELS 3 Zrotation Yrotation Xrotation
					JOINT LeftArm
					{
						OFFSET 2.700000 1.550000 -0.730000
						CHANNELS 3 Zrotation Yrotation Xrotation
						JOINT LeftForeArm
						{
							OFFSET 5.450000 0.000000 0.000000
							CHANNELS 3 Zrotation Yrotation Xrotation
							JOINT LeftHand
							{
								OFFSET 3.450000 0.000000 0.000000
								CHANNELS 3 Zrotation Yrotation Xrotation
								JOINT LeftHandIndex1
								{
									OFFSET 0.750000 0.000000 0.000000
									CHANNELS 3 Zrotation Yrotation Xrotation
									End Site
									{
										OFFSET 0.000000 0.000000 0.000000
									}
								}
							}
						}
					}
				}
				JOINT RightShoulder
				{
					OFFSET 0.000000 0.000000 0.000000
					CHANNELS 3 Zrotation Yrotation Xrotation
					JOINT RightArm
					{
						OFFSET -2.700000 1.550000 -0.730000
						CHANNELS 3 Zrotation Yrotation Xrotation
						JOINT RightForeArm
						{
							OFFSET -5.450000 0.000000 0.000000
							CHANNELS 3 Zrotation Yrotation Xrotation
							JOINT RightHand
							{
								OFFSET -3.450000 0.000000 0.000000
								CHANNELS 3 Zrotation Yrotation Xrotation
								JOINT RightHandIndex1
								{
									OFFSET -0.750000 0.000000 0.000000
									CHANNELS 3 Zrotation Yrotation Xrotation
									End Site
									{
										OFFSET 0.000000 0.000000 0.000000
									}
								}
							}
						}
					}
				}
			}
		}
	}
}
MOTION
Frames: 14
Frame Time: 0.016667
1.447260 16.168840 -2.324570 8.304430 -4.717525 9.789059 -15.372752 12.175098 3.667629 -20.686747 0.153638 -15.433758 -12.697977 4.610948 1.510483 -1.054690 3.454461 3.220701 0.324760 0.650680 0.274260 18.500194 -8.669432 3.987087 5.884211 8.063308 -44.402838 6.317166 -3.745005 16.132531 -0.016190 -1.965829 2.862285 0.685290 0.512990 0.488160 -3.682655 -2.887273 -7.871904 20.836138 -9.388704 9.125482 -2.039556 -9.554740 15.775181 5.000536 -0.690971 -13.435980 -1.990949 10.851829 16.341828 -10.926490 11.847000 -16.937700 -2.115832 -30.730252 4.367762 -35.024111 -41.974354 2.485062 -49.816357 -60.902461 22.828978 -4.081931 3.609330 0.106620 0.520320 0.105110 -0.043940 -7.605921 26.809211 8.425559 -1.154090 18.212703 -1.689038 -15.969313 -2.659858 -2.142594 2.693129 -1.456505 -0.258180 0.359580 0.275580 0.011700 
1.449640 16.171040 -2.336620 8.457899 -3.266433 9.231144 -15.354582 12.189274 3.690248 -20.427760 0.251288 -14.733908 -12.922184 4.713164 1.779182 -1.011969 3.454728 3.204485 0.338140 0.649140 0.316420 18.501815 -8.779416 3.933950 6.639783 7.885739 -43.182903 5.988332 -3.791519 16.777105 -0.060732 -1.941931 2.857608 0.651640 0.432190 0.454380 -3.701235 -2.764639 -7.892488 21.257317 -9.266068 9.842856 -2.118282 -9.405345 15.866752 5.157497 -0.528610 -13.787909 -1.581220 9.756795 16.743414 -10.814470 11.241560 -18.680930 -1.669252 -30.825409 4.584608 -34.621557 -40.509014 1.652399 -51.611862 -61.031779 23.705323 -3.990977 3.580143 0.179910 0.422900 0.162520 -0.060610 -8.408685 27.108853 8.934448 2.442959 18.248702 -1.251169 -15.515420 -3.477466 -1.840453 2.762120 -1.407394 -0.249760 0.356320 0.252370 -0.002280 
1.436800 16.174680 -2.327290 8.806017 -1.091703 9.072192 -15.298354 12.039013 3.668576 -20.084274 0.411406 -13.784488 -13.436538 4.803473 1.829990 -1.058325 3.530809 3.184749 0.376220 0.685880 0.388610 18.556714 -8.975873 3.894711 8.050855 7.908315 -41.780454 5.442781 -3.822366 17.654056 -0.107524 -1.976461 2.867374 0.684330 0.397540 0.409360 -3.862010 -2.185631 -7.855704 22.187848 -8.729068 9.490408 -1.746434 -9.140089 15.265504 5.155880 0.099255 -13.185063 -0.392524 9.841934 16.600509 -11.278440 11.751380 -20.841080 -2.774739 -30.105737 5.206166 -34.518886 -35.919194 1.299526 -59.602491 -62.371902 28.877553 -4.052614 3.468869 0.273390 0.389050 0.207630 -0.061160 -7.220022 26.376025 7.791222 7.086280 21.507527 -0.081074 -14.354189 -6.518062 -1.365107 2.801455 -1.348606 -0.303830 0.424880 0.220380 -0.048870 
1.451250 16.183130 -2.338870 9.089030 1.447002 7.777439 -15.265540 12.115029 3.713963 -19.781531 0.850676 -12.039517 -13.443305 5.033682 2.343924 -0.816941 3.528974 3.168982 0.271530 0.580890 0.288540 18.553419 -9.151536 3.825292 8.948337 7.524627 -39.495583 5.564972 -4.121767 18.742824 -0.143519 -2.081772 2.863880 0.516140 0.321310 0.423740 -3.902621 -2.064373 -7.938785 23.698953 -8.499137 11.164388 -0.882659 -8.801029 14.229289 5.130458 0.246688 -13.803092 0.035020 8.227892 17.955258 -11.592280 11.391700 -21.654170 -5.111242 -30.494027 6.314785 -32.320642 -32.008738 -0.363409 -62.710307 -63.568478 31.707653 -3.965326 3.540606 0.276520 0.296770 0.260690 -0.076600 -4.983554 27.140126 8.183560 8.970137 21.446488 -0.245912 -13.235550 -8.200851 -0.814869 2.968315 -1.269180 -0.209500 0.313600 0.228760 0.002350 
1.450910 16.185650 -2.345270 9.128375 5.567794 7.268766 -15.242659 12.096077 3.712440 -19.108715 1.104971 -10.855802 -14.014385 5.249401 2.569288 -0.682131 3.634210 3.157063 0.187630 0.506280 0.205740 18.556679 -9.316755 3.785915 9.777664 7.331170 -37.696078 5.470441 -4.292231 19.449094 -0.148985 -2.198028 2.876019 0.433490 0.347050 0.423820 -3.960416 -1.764485 -7.974449 25.317038 -8.144419 11.391679 0.785379 -8.730300 13.441700 4.818697 0.812481 -14.640717 1.244829 6.952363 17.439390 -11.525660 10.989730 -21.327100 -7.097995 -30.403734 7.469504 -29.956322 -26.502291 -1.604378 -73.582978 -64.462220 38.981070 -4.066267 3.498470 0.252320 0.298720 0.255220 -0.071340 -2.498098 27.198288 8.841210 10.242098 20.529765 0.655643 -10.121627 -6.244498 -0.753167 2.936713 -1.153721 -0.188560 0.300130 0.246790 0.039130 
1.452660 16.183310 -2.368100 9.842799 10.907609 7.437350 -15.217585 11.977680 3.733473 -19.282415 1.156925 -9.939939 -14.196699 5.438974 3.260755 -0.715544 3.812388 3.093796 0.110280 0.367650 0.191240 18.572969 -9.490897 3.730756 8.997615 7.070632 -37.284069 6.381366 -4.933858 21.050182 -0.167007 -2.513776 2.746245 0.370750 0.366980 0.451010 -4.070091 -1.315361 -7.969440 26.871955 -7.752514 10.455894 1.632907 -8.515505 12.939174 4.438011 1.357446 -15.611404 2.496072 5.576317 15.735982 -12.626240 10.368350 -21.172800 -8.462549 -30.416369 8.459769 -26.585094 -20.905078 -2.759806 -81.372763 -64.965101 44.545221 -4.192580 3.458786 0.284910 0.323560 0.216450 -0.128660 -0.574972 27.232229 9.457179 13.357491 19.324233 1.382081 -7.905849 -5.422909 -0.599119 2.857078 -1.104451 -0.228890 0.281370 0.329230 -0.009030 
1.442240 16.173140 -2.375910 11.014039 15.762177 7.333333 -15.172511 11.766072 3.748906 -19.752141 1.381580 -8.445900 -13.864394 5.507822 3.789916 -0.745743 3.867139 3.059284 0.192620 0.498100 0.256130 18.618717 -9.772927 3.592896 8.048678 6.503743 -36.152151 6.955133 -5.491168 22.831135 -0.246011 -2.871509 2.606922 0.468280 0.337690 0.438330 -4.267074 -0.581324 -7.881565 27.271171 -6.675275 8.806880 2.421074 -8.154833 13.497079 3.759395 2.010487 -15.852209 4.008674 4.321370 14.068245 -12.944770 9.549570 -22.290650 -8.391905 -30.078940 8.778717 -24.648024 -17.651283 -3.281026 -85.318746 -65.120894 47.453710 -4.233801 3.394456 0.280240 0.330250 0.249960 -0.120050 0.681144 26.690071 9.600704 18.893544 18.763700 2.116424 -8.409950 -4.348004 -0.615740 2.743160 -1.191701 -0.225330 0.321200 0.285470 -0.019160 
1.452930 16.169690 -2.403350 11.126915 20.370816 6.663742 -15.119388 11.631440 3.731908 -19.114290 1.618657 -6.962972 -13.912358 5.655088 4.118186 -0.655479 3.950954 3.064552 0.138990 0.462900 0.185630 18.655214 -10.047162 3.533537 7.787355 6.266689 -34.714352 6.857175 -5.998336 25.099053 -0.289681 -3.250385 2.527367 0.431440 0.370120 0.409840 -4.488242 0.060867 -7.890224 29.181014 -5.527201 7.957272 2.820458 -7.086349 12.853937 3.266454 2.909182 -16.257477 6.107043 1.101137 14.013937 -12.534350 7.609720 -21.434320 -8.653130 -30.169879 9.050687 -22.365270 -15.833577 -3.125923 -91.511812 -65.251945 52.689547 -4.276164 3.294892 0.258710 0.331330 0.239070 -0.093620 1.574597 26.572589 9.840052 23.624733 18.078366 2.594491 -7.810790 -5.638285 -0.290398 2.762283 -1.190305 -0.228110 0.349960 0.283370 0.020620 
1.440690 16.173840 -2.409490 12.541605 24.634646 6.988049 -15.075795 11.413723 3.752167 -19.236679 1.476521 -6.278186 -14.244027 5.804687 4.896148 -0.747035 4.102952 3.053209 0.185190 0.539850 0.187240 18.692929 -10.387523 3.362420 6.456718 5.630924 -33.214102 6.154551 -6.251264 27.283704 -0.333382 -3.635387 2.414369 0.546910 0.459240 0.329040 -4.696729 0.844777 -7.807266 28.474219 -4.065626 6.517141 4.456662 -6.425777 13.541915 1.924551 3.184281 -17.064877 7.410020 -0.228305 11.796605 -10.425360 5.736250 -21.525980 -9.059233 -30.328845 9.496486 -18.937821 -11.311485 -4.008230 -98.195421 -66.498258 58.966786 -4.337472 3.099914 0.267540 0.355060 0.194400 -0.052550 4.584592 26.939960 10.132848 25.656946 16.948570 2.710271 -8.001789 -5.708115 -0.315496 2.667721 -1.193443 -0.320360 0.515450 0.279560 0.027980 
1.428990 16.176910 -2.425260 13.735199 29.556704 6.131256 -15.037974 11.222195 3.794387 -19.234616 1.977864 -3.608388 -13.887923 5.903587 5.161602 -0.782607 4.249854 2.992775 0.283930 0.657600 0.224840 18.720708 -10.746939 3.197614 5.419163 4.992279 -31.088547 5.366384 -6.526110 29.692256 -0.429450 -4.045996 2.260453 0.646150 0.436270 0.276060 -4.944179 1.610132 -7.813236 29.181527 -3.068041 5.815185 3.967492 -5.616012 15.526615 1.233675 3.104292 -18.624747 8.317711 -2.682400 10.428409 -8.747610 3.056830 -23.170770 -8.683515 -32.389936 9.885435 -13.092739 -7.606738 -5.637326 -103.816853 -68.013793 64.835516 -4.236888 2.983176 0.315060 0.297690 0.212040 -0.025960 5.427573 29.558162 11.406100 28.331607 16.274061 3.109922 -7.713345 -7.399328 -0.039298 2.646454 -1.200536 -0.343300 0.595890 0.250700 0.028570 
1.447150 16.187940 -2.447050 13.917471 36.186491 4.722209 -15.073866 11.230622 3.799879 -18.170009 3.043133 0.657521 -12.493949 5.924455 4.509436 -0.615087 4.413117 2.960952 0.244300 0.625610 0.131700 18.676093 -10.917637 3.067294 4.859553 4.338917 -29.147857 5.722760 -7.193670 31.132393 -0.485435 -4.401112 2.167374 0.589350 0.455650 0.271800 -5.085920 1.781447 -7.838002 31.342226 -3.599674 4.908333 3.873766 -6.226348 15.968885 0.161971 2.686898 -19.790121 8.132621 -4.529595 10.185013 -7.072500 1.006340 -22.878070 -7.522678 -34.020428 10.743897 -11.456909 -4.467535 -7.354353 -108.714109 -69.943933 70.843503 -4.147642 2.904258 0.282230 0.265650 0.200720 0.002350 6.055733 31.199208 11.929018 29.954327 16.412495 3.333674 -7.226171 -7.363763 0.120443 2.683825 -1.196742 -0.299620 0.578920 0.257960 0.092670 
1.470120 16.185550 -2.459610 14.979934 42.955060 4.050365 -15.172995 11.371109 3.884705 -17.503876 3.713344 4.024525 -11.122792 6.053085 4.726029 -0.413664 4.571593 2.956939 0.142840 0.526440 -0.016550 18.547637 -11.036921 2.866766 3.111863 3.236905 -26.537986 6.857322 -7.991706 31.286767 -0.494703 -4.644992 2.164391 0.482030 0.502540 0.219190 -5.075034 1.563153 -7.860221 31.696913 -3.889463 4.753081 5.194755 -6.663667 15.560919 -1.405666 2.022223 -21.245601 7.679481 -6.173446 9.600277 -4.327850 -1.123890 -22.809750 -6.447950 -35.096362 11.549434 -11.257563 0.010806 -9.717830 -117.075973 -71.310537 80.781320 -3.940606 2.794141 0.262070 0.222070 0.161940 0.036820 7.641213 32.258093 12.801573 30.657100 14.486933 2.801290 -7.256847 -4.173973 0.023022 2.659530 -1.158644 -0.289550 0.586450 0.274680 0.165240 
1.469420 16.199470 -2.478350 14.547719 49.340673 1.268104 -15.263764 11.453026 3.901889 -15.196989 3.879579 7.817370 -10.414075 6.342879 5.549747 -0.254819 4.943047 2.812470 0.033130 0.355650 -0.135320 18.421152 -11.237251 2.733055 2.493231 2.339492 -21.862141 7.670712 -8.514066 30.511615 -0.561925 -4.803295 2.086691 0.331560 0.510540 0.285130 -5.240781 1.651986 -7.952964 33.385037 -3.981893 4.866589 5.793493 -7.219328 17.826761 -2.672640 1.349593 -23.614374 7.051533 -7.652304 10.378145 -1.223600 -3.147720 -24.548650 -1.583814 -38.317560 12.650289 -13.793013 3.553385 -14.378213 -129.777214 -73.350737 96.075748 -3.545183 2.869385 0.318360 0.150780 0.178400 -0.000750 5.000434 35.929026 13.977766 32.923209 16.512042 2.968974 -7.544420 -5.411301 0.535442 2.729519 -1.096554 -0.244400 0.531210 0.390210 0.198030 
1.460570 16.217720 -2.477950 14.522462 55.446020 1.224700 -15.383794 11.775110 3.903211 -13.482441 3.555931 8.275048 -9.392657 6.489258 7.549534 -0.186778 5.037863 2.789363 -0.108230 0.168400 -0.201190 18.229898 -11.255402 2.810566 2.753383 2.425436 -19.688731 7.387443 -8.316377 29.889225 -0.549759 -4.691235 2.158457 0.179240 0.492940 0.276370 -5.152532 1.207758 -8.034284 34.921525 -4.179908 4.861129 3.703209 -5.854099 15.063346 -2.475512 1.467960 -24.554064 7.760569 -9.891408 9.909203 -0.547170 -4.570480 -26.516290 -4.623959 -38.340015 14.196115 -9.918404 11.070079 -13.150606 -141.904580 -71.689614 110.767311 -3.299868 3.178548 0.386830 0.097660 0.192180 -0.055230 6.568800 36.580356 13.092408 36.601529 20.808505 4.013943 -8.657332 -9.929480 1.614884 2.899353 -1.014782 -0.261610 0.512630 0.458180 0.186540 
